<mxfile host="app.diagrams.net" agent="Mozilla/5.0 (Windows NT 10.0; Win64; x64) AppleWebKit/537.36 (KHTML, like Gecko) Chrome/129.0.0.0 Safari/537.36" version="24.7.17">
  <diagram name="Страница — 1" id="MIVl5p1enr49xJksiQ6v">
    <mxGraphModel dx="1430" dy="781" grid="1" gridSize="10" guides="1" tooltips="1" connect="1" arrows="1" fold="1" page="1" pageScale="1" pageWidth="827" pageHeight="1169" math="0" shadow="0">
      <root>
        <mxCell id="0" />
        <mxCell id="1" parent="0" />
        <mxCell id="CpAqPp1v59whtkxB9n1a-2" value="" style="verticalLabelPosition=bottom;verticalAlign=top;html=1;shadow=0;dashed=0;strokeWidth=2;shape=mxgraph.android.phone2;strokeColor=#000000;" vertex="1" parent="1">
          <mxGeometry x="40" y="40" width="200" height="390" as="geometry" />
        </mxCell>
        <mxCell id="CpAqPp1v59whtkxB9n1a-3" value="" style="html=1;verticalLabelPosition=bottom;align=center;labelBackgroundColor=#ffffff;verticalAlign=top;strokeWidth=2;strokeColor=#0080F0;shadow=0;dashed=0;shape=mxgraph.ios7.icons.shopping_cart;" vertex="1" parent="1">
          <mxGeometry x="180" y="350" width="30" height="25.5" as="geometry" />
        </mxCell>
        <mxCell id="CpAqPp1v59whtkxB9n1a-4" value="" style="html=1;verticalLabelPosition=bottom;align=center;labelBackgroundColor=#ffffff;verticalAlign=top;strokeWidth=2;strokeColor=#0080F0;shadow=0;dashed=0;shape=mxgraph.ios7.icons.home;" vertex="1" parent="1">
          <mxGeometry x="71" y="350" width="24" height="25.5" as="geometry" />
        </mxCell>
        <mxCell id="CpAqPp1v59whtkxB9n1a-5" value="" style="html=1;verticalLabelPosition=bottom;align=center;labelBackgroundColor=#ffffff;verticalAlign=top;strokeWidth=2;strokeColor=#0080F0;shadow=0;dashed=0;shape=mxgraph.ios7.icons.back;" vertex="1" parent="1">
          <mxGeometry x="124" y="350" width="30" height="25.5" as="geometry" />
        </mxCell>
        <mxCell id="CpAqPp1v59whtkxB9n1a-6" value="" style="verticalLabelPosition=bottom;verticalAlign=top;html=1;shadow=0;dashed=0;strokeWidth=1;shape=mxgraph.ios.iPhone;bgStyle=bgGreen;fillColor=#aaaaaa;sketch=0;" vertex="1" parent="1">
          <mxGeometry x="314" y="40" width="200" height="400" as="geometry" />
        </mxCell>
        <mxCell id="CpAqPp1v59whtkxB9n1a-7" value="" style="shape=ellipse;fillColor=#FF4081;strokeColor=none;shadow=1;aspect=fixed;sketch=0;html=1;labelPosition=center;verticalLabelPosition=bottom;align=center;verticalAlign=top;" vertex="1" parent="1">
          <mxGeometry x="358" y="506" width="56" height="56" as="geometry" />
        </mxCell>
        <mxCell id="CpAqPp1v59whtkxB9n1a-8" value="" style="dashed=0;html=1;shape=mxgraph.gmdl.plus;strokeColor=#ffffff;strokeWidth=2;shadow=0;sketch=0;" vertex="1" parent="CpAqPp1v59whtkxB9n1a-7">
          <mxGeometry x="20" y="20" width="16" height="16" as="geometry" />
        </mxCell>
        <mxCell id="CpAqPp1v59whtkxB9n1a-9" value="" style="dashed=0;shape=rect;fillColor=#263238;strokeColor=none;aspect=fixed;" vertex="1" parent="1">
          <mxGeometry x="460" y="473" width="358" height="224" as="geometry" />
        </mxCell>
        <mxCell id="CpAqPp1v59whtkxB9n1a-10" value="q" style="text;fontColor=#bbbbbb;fontSize=24;verticalAlign=middle;align=center;html=1;spacingBottom=-6;" vertex="1" parent="CpAqPp1v59whtkxB9n1a-9">
          <mxGeometry x="12" y="22" width="30" height="30" as="geometry" />
        </mxCell>
        <mxCell id="CpAqPp1v59whtkxB9n1a-11" value="w" style="text;fontColor=#bbbbbb;fontSize=24;verticalAlign=middle;align=center;html=1;spacingBottom=-6;" vertex="1" parent="CpAqPp1v59whtkxB9n1a-9">
          <mxGeometry x="46" y="22" width="30" height="30" as="geometry" />
        </mxCell>
        <mxCell id="CpAqPp1v59whtkxB9n1a-12" value="e" style="text;fontColor=#bbbbbb;fontSize=24;verticalAlign=middle;align=center;html=1;spacingBottom=-6;" vertex="1" parent="CpAqPp1v59whtkxB9n1a-9">
          <mxGeometry x="80" y="22" width="30" height="30" as="geometry" />
        </mxCell>
        <mxCell id="CpAqPp1v59whtkxB9n1a-13" value="r" style="text;fontColor=#bbbbbb;fontSize=24;verticalAlign=middle;align=center;html=1;spacingBottom=-6;" vertex="1" parent="CpAqPp1v59whtkxB9n1a-9">
          <mxGeometry x="114" y="22" width="30" height="30" as="geometry" />
        </mxCell>
        <mxCell id="CpAqPp1v59whtkxB9n1a-14" value="t" style="text;fontColor=#bbbbbb;fontSize=24;verticalAlign=middle;align=center;html=1;spacingBottom=-6;" vertex="1" parent="CpAqPp1v59whtkxB9n1a-9">
          <mxGeometry x="148" y="22" width="30" height="30" as="geometry" />
        </mxCell>
        <mxCell id="CpAqPp1v59whtkxB9n1a-15" value="y" style="text;fontColor=#bbbbbb;fontSize=24;verticalAlign=middle;align=center;html=1;spacingBottom=-6;" vertex="1" parent="CpAqPp1v59whtkxB9n1a-9">
          <mxGeometry x="182" y="22" width="30" height="30" as="geometry" />
        </mxCell>
        <mxCell id="CpAqPp1v59whtkxB9n1a-16" value="u" style="text;fontColor=#bbbbbb;fontSize=24;verticalAlign=middle;align=center;html=1;spacingBottom=-6;" vertex="1" parent="CpAqPp1v59whtkxB9n1a-9">
          <mxGeometry x="216" y="22" width="30" height="30" as="geometry" />
        </mxCell>
        <mxCell id="CpAqPp1v59whtkxB9n1a-17" value="i" style="text;fontColor=#bbbbbb;fontSize=24;verticalAlign=middle;align=center;html=1;spacingBottom=-6;" vertex="1" parent="CpAqPp1v59whtkxB9n1a-9">
          <mxGeometry x="250" y="22" width="30" height="30" as="geometry" />
        </mxCell>
        <mxCell id="CpAqPp1v59whtkxB9n1a-18" value="o" style="text;fontColor=#bbbbbb;fontSize=24;verticalAlign=middle;align=center;html=1;spacingBottom=-6;" vertex="1" parent="CpAqPp1v59whtkxB9n1a-9">
          <mxGeometry x="284" y="22" width="30" height="30" as="geometry" />
        </mxCell>
        <mxCell id="CpAqPp1v59whtkxB9n1a-19" value="p" style="text;fontColor=#bbbbbb;fontSize=24;verticalAlign=middle;align=center;html=1;spacingBottom=-6;" vertex="1" parent="CpAqPp1v59whtkxB9n1a-9">
          <mxGeometry x="318" y="22" width="30" height="30" as="geometry" />
        </mxCell>
        <mxCell id="CpAqPp1v59whtkxB9n1a-20" value="a" style="text;fontColor=#bbbbbb;fontSize=24;verticalAlign=middle;align=center;html=1;spacingBottom=-6;" vertex="1" parent="CpAqPp1v59whtkxB9n1a-9">
          <mxGeometry x="27" y="75" width="30" height="30" as="geometry" />
        </mxCell>
        <mxCell id="CpAqPp1v59whtkxB9n1a-21" value="s" style="text;fontColor=#bbbbbb;fontSize=24;verticalAlign=middle;align=center;html=1;spacingBottom=-6;" vertex="1" parent="CpAqPp1v59whtkxB9n1a-9">
          <mxGeometry x="61" y="75" width="30" height="30" as="geometry" />
        </mxCell>
        <mxCell id="CpAqPp1v59whtkxB9n1a-22" value="d" style="text;fontColor=#bbbbbb;fontSize=24;verticalAlign=middle;align=center;html=1;spacingBottom=-6;" vertex="1" parent="CpAqPp1v59whtkxB9n1a-9">
          <mxGeometry x="95" y="75" width="30" height="30" as="geometry" />
        </mxCell>
        <mxCell id="CpAqPp1v59whtkxB9n1a-23" value="f" style="text;fontColor=#bbbbbb;fontSize=24;verticalAlign=middle;align=center;html=1;spacingBottom=-6;" vertex="1" parent="CpAqPp1v59whtkxB9n1a-9">
          <mxGeometry x="129" y="75" width="30" height="30" as="geometry" />
        </mxCell>
        <mxCell id="CpAqPp1v59whtkxB9n1a-24" value="g" style="text;fontColor=#bbbbbb;fontSize=24;verticalAlign=middle;align=center;html=1;spacingBottom=-6;" vertex="1" parent="CpAqPp1v59whtkxB9n1a-9">
          <mxGeometry x="163" y="75" width="30" height="30" as="geometry" />
        </mxCell>
        <mxCell id="CpAqPp1v59whtkxB9n1a-25" value="h" style="text;fontColor=#bbbbbb;fontSize=24;verticalAlign=middle;align=center;html=1;spacingBottom=-6;" vertex="1" parent="CpAqPp1v59whtkxB9n1a-9">
          <mxGeometry x="197" y="75" width="30" height="30" as="geometry" />
        </mxCell>
        <mxCell id="CpAqPp1v59whtkxB9n1a-26" value="j" style="text;fontColor=#bbbbbb;fontSize=24;verticalAlign=middle;align=center;html=1;spacingBottom=-6;" vertex="1" parent="CpAqPp1v59whtkxB9n1a-9">
          <mxGeometry x="231" y="75" width="30" height="30" as="geometry" />
        </mxCell>
        <mxCell id="CpAqPp1v59whtkxB9n1a-27" value="k" style="text;fontColor=#bbbbbb;fontSize=24;verticalAlign=middle;align=center;html=1;spacingBottom=-6;" vertex="1" parent="CpAqPp1v59whtkxB9n1a-9">
          <mxGeometry x="265" y="75" width="30" height="30" as="geometry" />
        </mxCell>
        <mxCell id="CpAqPp1v59whtkxB9n1a-28" value="l" style="text;fontColor=#bbbbbb;fontSize=24;verticalAlign=middle;align=center;html=1;spacingBottom=-6;" vertex="1" parent="CpAqPp1v59whtkxB9n1a-9">
          <mxGeometry x="299" y="75" width="30" height="30" as="geometry" />
        </mxCell>
        <mxCell id="CpAqPp1v59whtkxB9n1a-29" value="z" style="text;fontColor=#bbbbbb;fontSize=24;verticalAlign=middle;align=center;html=1;spacingBottom=-6;" vertex="1" parent="CpAqPp1v59whtkxB9n1a-9">
          <mxGeometry x="61" y="126" width="30" height="30" as="geometry" />
        </mxCell>
        <mxCell id="CpAqPp1v59whtkxB9n1a-30" value="x" style="text;fontColor=#bbbbbb;fontSize=24;verticalAlign=middle;align=center;html=1;spacingBottom=-6;" vertex="1" parent="CpAqPp1v59whtkxB9n1a-9">
          <mxGeometry x="95" y="126" width="30" height="30" as="geometry" />
        </mxCell>
        <mxCell id="CpAqPp1v59whtkxB9n1a-31" value="c" style="text;fontColor=#bbbbbb;fontSize=24;verticalAlign=middle;align=center;html=1;spacingBottom=-6;" vertex="1" parent="CpAqPp1v59whtkxB9n1a-9">
          <mxGeometry x="129" y="126" width="30" height="30" as="geometry" />
        </mxCell>
        <mxCell id="CpAqPp1v59whtkxB9n1a-32" value="v" style="text;fontColor=#bbbbbb;fontSize=24;verticalAlign=middle;align=center;html=1;spacingBottom=-6;" vertex="1" parent="CpAqPp1v59whtkxB9n1a-9">
          <mxGeometry x="163" y="126" width="30" height="30" as="geometry" />
        </mxCell>
        <mxCell id="CpAqPp1v59whtkxB9n1a-33" value="b" style="text;fontColor=#bbbbbb;fontSize=24;verticalAlign=middle;align=center;html=1;spacingBottom=-6;" vertex="1" parent="CpAqPp1v59whtkxB9n1a-9">
          <mxGeometry x="197" y="126" width="30" height="30" as="geometry" />
        </mxCell>
        <mxCell id="CpAqPp1v59whtkxB9n1a-34" value="n" style="text;fontColor=#bbbbbb;fontSize=24;verticalAlign=middle;align=center;html=1;spacingBottom=-6;" vertex="1" parent="CpAqPp1v59whtkxB9n1a-9">
          <mxGeometry x="231" y="126" width="30" height="30" as="geometry" />
        </mxCell>
        <mxCell id="CpAqPp1v59whtkxB9n1a-35" value="m" style="text;fontColor=#bbbbbb;fontSize=24;verticalAlign=middle;align=center;html=1;spacingBottom=-6;" vertex="1" parent="CpAqPp1v59whtkxB9n1a-9">
          <mxGeometry x="265" y="126" width="30" height="30" as="geometry" />
        </mxCell>
        <mxCell id="CpAqPp1v59whtkxB9n1a-36" value="1" style="text;fontColor=#999999;fontSize=10;verticalAlign=middle;align=center;html=1;" vertex="1" parent="CpAqPp1v59whtkxB9n1a-9">
          <mxGeometry x="22" y="12" width="30" height="30" as="geometry" />
        </mxCell>
        <mxCell id="CpAqPp1v59whtkxB9n1a-37" value="2" style="text;fontColor=#999999;fontSize=10;verticalAlign=middle;align=center;html=1;" vertex="1" parent="CpAqPp1v59whtkxB9n1a-9">
          <mxGeometry x="56" y="12" width="30" height="30" as="geometry" />
        </mxCell>
        <mxCell id="CpAqPp1v59whtkxB9n1a-38" value="3" style="text;fontColor=#999999;fontSize=10;verticalAlign=middle;align=center;html=1;" vertex="1" parent="CpAqPp1v59whtkxB9n1a-9">
          <mxGeometry x="90" y="12" width="30" height="30" as="geometry" />
        </mxCell>
        <mxCell id="CpAqPp1v59whtkxB9n1a-39" value="4" style="text;fontColor=#999999;fontSize=10;verticalAlign=middle;align=center;html=1;" vertex="1" parent="CpAqPp1v59whtkxB9n1a-9">
          <mxGeometry x="124" y="12" width="30" height="30" as="geometry" />
        </mxCell>
        <mxCell id="CpAqPp1v59whtkxB9n1a-40" value="5" style="text;fontColor=#999999;fontSize=10;verticalAlign=middle;align=center;html=1;" vertex="1" parent="CpAqPp1v59whtkxB9n1a-9">
          <mxGeometry x="158" y="12" width="30" height="30" as="geometry" />
        </mxCell>
        <mxCell id="CpAqPp1v59whtkxB9n1a-41" value="6" style="text;fontColor=#999999;fontSize=10;verticalAlign=middle;align=center;html=1;" vertex="1" parent="CpAqPp1v59whtkxB9n1a-9">
          <mxGeometry x="192" y="12" width="30" height="30" as="geometry" />
        </mxCell>
        <mxCell id="CpAqPp1v59whtkxB9n1a-42" value="7" style="text;fontColor=#999999;fontSize=10;verticalAlign=middle;align=center;html=1;" vertex="1" parent="CpAqPp1v59whtkxB9n1a-9">
          <mxGeometry x="226" y="12" width="30" height="30" as="geometry" />
        </mxCell>
        <mxCell id="CpAqPp1v59whtkxB9n1a-43" value="8" style="text;fontColor=#999999;fontSize=10;verticalAlign=middle;align=center;html=1;" vertex="1" parent="CpAqPp1v59whtkxB9n1a-9">
          <mxGeometry x="260" y="12" width="30" height="30" as="geometry" />
        </mxCell>
        <mxCell id="CpAqPp1v59whtkxB9n1a-44" value="9" style="text;fontColor=#999999;fontSize=10;verticalAlign=middle;align=center;html=1;" vertex="1" parent="CpAqPp1v59whtkxB9n1a-9">
          <mxGeometry x="294" y="12" width="30" height="30" as="geometry" />
        </mxCell>
        <mxCell id="CpAqPp1v59whtkxB9n1a-45" value="0" style="text;fontColor=#999999;fontSize=10;verticalAlign=middle;align=center;html=1;" vertex="1" parent="CpAqPp1v59whtkxB9n1a-9">
          <mxGeometry x="328" y="12" width="30" height="30" as="geometry" />
        </mxCell>
        <mxCell id="CpAqPp1v59whtkxB9n1a-46" value="" style="dashed=0;shape=mxgraph.gmdl.shift;strokeColor=none;fillColor=#A1A7A9;" vertex="1" parent="CpAqPp1v59whtkxB9n1a-9">
          <mxGeometry x="21" y="135" width="22" height="22" as="geometry" />
        </mxCell>
        <mxCell id="CpAqPp1v59whtkxB9n1a-47" value="" style="dashed=0;shape=mxgraph.gmdl.backspace;strokeColor=none;fillColor=#A1A7A9;" vertex="1" parent="CpAqPp1v59whtkxB9n1a-9">
          <mxGeometry x="310" y="132" width="26" height="18" as="geometry" />
        </mxCell>
        <mxCell id="CpAqPp1v59whtkxB9n1a-48" value="?123" style="text;fontColor=#bbbbbb;fontSize=14;verticalAlign=middle;align=center;" vertex="1" parent="CpAqPp1v59whtkxB9n1a-9">
          <mxGeometry x="17" y="177" width="30" height="30" as="geometry" />
        </mxCell>
        <mxCell id="CpAqPp1v59whtkxB9n1a-49" value="," style="text;fontColor=#bbbbbb;fontSize=24;verticalAlign=middle;align=center;" vertex="1" parent="CpAqPp1v59whtkxB9n1a-9">
          <mxGeometry x="62" y="174" width="30" height="30" as="geometry" />
        </mxCell>
        <mxCell id="CpAqPp1v59whtkxB9n1a-50" value="." style="text;fontColor=#bbbbbb;fontSize=24;verticalAlign=middle;align=center;" vertex="1" parent="CpAqPp1v59whtkxB9n1a-9">
          <mxGeometry x="265" y="170" width="30" height="30" as="geometry" />
        </mxCell>
        <mxCell id="CpAqPp1v59whtkxB9n1a-51" value="" style="shape=ellipse;strokeColor=none;fillColor=#4CB5AB;" vertex="1" parent="CpAqPp1v59whtkxB9n1a-9">
          <mxGeometry x="308" y="167" width="36" height="36" as="geometry" />
        </mxCell>
        <mxCell id="CpAqPp1v59whtkxB9n1a-52" value="" style="dashed=0;shape=mxgraph.gmdl.check;strokeColor=#ffffff;strokeWidth=2;" vertex="1" parent="CpAqPp1v59whtkxB9n1a-51">
          <mxGeometry x="10" y="12" width="16" height="12" as="geometry" />
        </mxCell>
        <mxCell id="CpAqPp1v59whtkxB9n1a-53" value="" style="shape=rect;strokeColor=none;fillColor=#3C474C;rounded=1;size=3;" vertex="1" parent="CpAqPp1v59whtkxB9n1a-9">
          <mxGeometry x="105" y="174" width="145" height="25" as="geometry" />
        </mxCell>
      </root>
    </mxGraphModel>
  </diagram>
</mxfile>
